<svg width="177" height="65" viewBox="0 0 177 65" fill="none" xmlns="http://www.w3.org/2000/svg">
<path d="M51.2 46.36C50.9333 46.36 50.8 46.2667 50.8 46.08C50.8 45.92 50.8933 45.8267 51.08 45.8C51.2933 45.7733 51.6 45.6933 52 45.56C53.28 45.0267 54.56 43.6667 55.84 41.48C52.9333 41.4 50.6667 40.6267 49.04 39.16C47.3067 37.5867 46.44 35.3733 46.44 32.52C46.44 29.1333 47.68 25.68 50.16 22.16C52.5333 18.8267 55.3067 16.3467 58.48 14.72C57.7333 14.64 57.1333 14.6 56.68 14.6C56.1467 14.6 55.5867 14.64 55 14.72C54.44 14.7733 53.8667 14.8667 53.28 15C51.7867 15.3467 50.4533 15.8667 49.28 16.56C47.6533 17.52 46.84 18.5867 46.84 19.76C46.84 19.8933 46.8533 20 46.88 20.08V20.4C46.88 20.7733 46.76 20.96 46.52 20.96C46.1733 20.96 45.9067 20.7067 45.72 20.2C45.5333 19.8267 45.44 19.44 45.44 19.04C45.44 17.3867 46.92 16.1067 49.88 15.2C52.04 14.56 54.2133 14.24 56.4 14.24C56.7467 14.24 57.1467 14.2667 57.6 14.32C58.0533 14.3467 58.5467 14.3867 59.08 14.44C59.7467 14.1467 60.4133 13.88 61.08 13.64C61.7467 13.4 62.4133 13.2 63.08 13.04C63.1067 12.5867 63.12 12.16 63.12 11.76C63.12 11.3333 63.12 10.9333 63.12 10.56C63.12 10.2933 63.1067 9.89333 63.08 9.36C63.0533 8.8 63.04 8.38666 63.04 8.12C63.04 7.90666 63.1067 7.8 63.24 7.8C63.2933 7.8 63.3467 7.86666 63.4 8C63.6133 8.77333 63.72 9.85333 63.72 11.24C63.72 11.5067 63.72 11.7867 63.72 12.08C63.72 12.3467 63.7067 12.6267 63.68 12.92C64.2133 12.8133 64.7333 12.7333 65.24 12.68C65.7467 12.6267 66.24 12.6 66.72 12.6C69.2533 12.6 71.2533 13.2667 72.72 14.6C74.2133 15.9067 74.96 17.7867 74.96 20.24V20.44C74.96 20.8933 74.7733 21.12 74.4 21.12C74.1867 21.12 73.9333 21.04 73.64 20.88C72.4133 20.1333 71.3867 19.5333 70.56 19.08C69.76 18.6 69.1467 18.2533 68.72 18.04C67.8133 17.56 66.92 17.1333 66.04 16.76C65.16 16.3867 64.2933 16.0667 63.44 15.8C63.3067 17.08 63.12 18.4133 62.88 19.8C62.64 21.16 62.3733 22.5733 62.08 24.04C62.5067 23.6933 62.8667 23.52 63.16 23.52C63.4533 23.52 63.6 23.6933 63.6 24.04C63.6 24.6 63.3467 25.2267 62.84 25.92C62.3067 26.6133 61.8 27.0933 61.32 27.36C60.7067 29.8667 60.04 32.1733 59.32 34.28C58.6267 36.36 57.88 38.2267 57.08 39.88C57.2667 39.9067 57.44 39.92 57.6 39.92C57.7867 39.92 57.9733 39.92 58.16 39.92C61.3067 39.92 64.3867 39.1467 67.4 37.6C70.5467 36.0533 72.9467 33.9867 74.6 31.4C74.8133 31.08 74.9467 30.92 75 30.92C75.0267 30.9467 75.04 30.9867 75.04 31.04C75.04 31.2533 74.9867 31.4533 74.88 31.64C73.2267 34.44 70.5333 36.8 66.8 38.72C63.2 40.5067 59.6933 41.4267 56.28 41.48C54.4667 44.7333 52.7733 46.36 51.2 46.36ZM73.32 18.8C73.5333 18.8 73.64 18.6533 73.64 18.36C73.64 18.0667 73.5467 17.7467 73.36 17.4C72.6933 16.1467 71.4933 15.1867 69.76 14.52C68.32 13.9333 66.7733 13.64 65.12 13.64C64.8533 13.64 64.6 13.6533 64.36 13.68C64.12 13.68 63.8667 13.6933 63.6 13.72L63.48 15.16C65.08 15.5067 66.6533 15.96 68.2 16.52C69.7733 17.08 71.3067 17.7733 72.8 18.6C73.0133 18.7333 73.1867 18.8 73.32 18.8ZM62.92 15.04L63 13.76C61.9333 13.92 60.92 14.1867 59.96 14.56L62.92 15.04ZM56.68 39.84C57.5067 38.1867 58.2667 36.3067 58.96 34.2C59.68 32.0667 60.3333 29.72 60.92 27.16C60.2 26.2267 59.84 25.2933 59.84 24.36C59.84 23.5067 60.0667 23.08 60.52 23.08C60.8933 23.08 61.24 23.44 61.56 24.16C62.1733 21.1467 62.6133 18.3067 62.88 15.64C62.2933 15.4533 61.6933 15.3067 61.08 15.2C60.4933 15.0667 59.8933 14.9467 59.28 14.84C56.24 16.2533 53.7333 18.5067 51.76 21.6C49.76 24.72 48.76 27.9467 48.76 31.28C48.76 33.7867 49.4533 35.7867 50.84 37.28C52.2267 38.7467 54.1733 39.6 56.68 39.84ZM77.1119 37.6C75.7785 37.6 75.1119 36.92 75.1119 35.56C75.1119 34.0933 75.7919 31.52 77.1519 27.84C76.4852 28.7467 76.0185 29.2 75.7519 29.2C75.6719 29.2 75.6319 29.16 75.6319 29.08C75.6319 29.0533 75.9785 28.5867 76.6719 27.68C77.0185 27.2267 77.2852 26.88 77.4719 26.64C77.6852 26.3733 77.8052 26.2 77.8319 26.12C77.9652 25.7467 78.1519 25.2667 78.3919 24.68C78.6319 24.0933 78.9119 23.4267 79.2319 22.68C79.8185 21.3467 80.4185 20.0133 81.0319 18.68C81.6452 17.32 82.2852 15.96 82.9519 14.6C83.1652 14.1467 83.4319 13.6 83.7519 12.96C84.0985 12.32 84.4985 11.5867 84.9519 10.76C85.2452 10.3067 85.7919 10.08 86.5919 10.08C87.0719 10.08 87.3119 10.2 87.3119 10.44C87.3119 10.52 87.2985 10.5867 87.2719 10.64L85.1119 15.44L84.2319 17.36C84.0452 17.4667 83.8052 17.6667 83.5119 17.96C83.5119 17.96 83.3652 18.24 83.0719 18.8C82.8052 19.36 82.3785 20.1867 81.7919 21.28C78.0319 28.5867 76.1519 33.36 76.1519 35.6C76.1519 36.48 76.4452 36.92 77.0319 36.92C77.6985 36.92 78.4852 36.5467 79.3919 35.8C80.3252 35.0267 80.7652 34.64 80.7119 34.64C80.8185 34.64 80.8719 34.6933 80.8719 34.8C80.8719 34.9067 80.8185 35.0133 80.7119 35.12C79.5385 36.7733 78.3385 37.6 77.1119 37.6ZM88.2753 38.16C87.5553 38.16 86.9953 37.7867 86.5953 37.04C86.2753 36.4267 86.1153 35.72 86.1153 34.92C86.1153 34.52 86.142 34.08 86.1953 33.6C86.2753 33.0933 86.382 32.5467 86.5153 31.96C84.8353 35.6933 83.102 37.56 81.3153 37.56C80.222 37.56 79.6753 36.8533 79.6753 35.44C79.6753 33.1733 80.7686 30.8267 82.9553 28.4C85.1686 25.92 87.3686 24.68 89.5553 24.68C90.5953 24.68 91.1153 25.1333 91.1153 26.04C91.1153 27.16 90.3686 28.28 88.8753 29.4C88.102 31.32 87.7153 33.2933 87.7153 35.32C87.7153 36.84 88.0486 37.6 88.7153 37.6C89.6486 37.6 91.2486 35.92 93.5153 32.56C93.6753 32.3467 93.7953 32.24 93.8753 32.24C93.9553 32.24 93.9953 32.2933 93.9953 32.4C93.9953 32.5333 93.942 32.6667 93.8353 32.8C91.4353 36.3733 89.582 38.16 88.2753 38.16ZM81.4753 36.32C83.1553 36.32 84.782 34.4533 86.3553 30.72C86.142 30.7733 85.942 30.8267 85.7553 30.88C85.5953 30.9067 85.4486 30.92 85.3153 30.92C85.2086 30.92 85.1553 30.88 85.1553 30.8C85.1553 30.6667 85.342 30.5333 85.7153 30.4L86.9553 29.68C87.0086 29.2267 87.2886 28.64 87.7953 27.92C88.302 27.1733 88.782 26.8 89.2353 26.8C89.3953 26.8 89.4753 26.92 89.4753 27.16C89.4753 27.3467 89.4086 27.64 89.2753 28.04C89.702 27.4533 89.9153 26.88 89.9153 26.32C89.9153 25.7067 89.6353 25.4 89.0753 25.4C87.742 25.4 85.9953 26.72 83.8353 29.36C81.6753 31.9467 80.5953 33.96 80.5953 35.4C80.5953 36.0133 80.8886 36.32 81.4753 36.32ZM98.0794 38.08C96.826 38.08 95.6927 37.56 94.6794 36.52C93.6927 35.4533 93.1994 34.2933 93.1994 33.04C93.1994 32.2133 93.4127 31.8 93.8394 31.8C94.106 31.8 94.3727 32 94.6394 32.4C95.4394 30.5333 96.5727 28.4267 98.0394 26.08C98.9727 24.64 100.066 23.92 101.319 23.92C101.586 23.92 101.893 24.0133 102.239 24.2C102.613 24.3867 102.799 24.6133 102.799 24.88C102.799 25.0667 102.626 25.16 102.279 25.16C102.253 25.16 102.213 25.16 102.159 25.16C102.106 25.16 102.039 25.1467 101.959 25.12H101.639C101.053 25.12 100.533 25.2933 100.079 25.64C99.626 25.9867 99.3994 26.4533 99.3994 27.04C99.3994 27.2533 99.4394 27.48 99.5194 27.72L100.479 30.92C100.693 31.56 100.839 32.16 100.919 32.72C100.999 33.2533 101.039 33.7467 101.039 34.2C101.759 34.0933 102.373 33.8267 102.879 33.4C103.199 33.1333 103.626 32.6 104.159 31.8C104.239 31.6933 104.319 31.64 104.399 31.64C104.479 31.64 104.519 31.6933 104.519 31.8C104.519 31.8267 104.493 31.92 104.439 32.08C103.533 33.6 102.413 34.4933 101.079 34.76C100.999 35.6933 100.719 36.4667 100.239 37.08C99.7327 37.7467 99.0127 38.08 98.0794 38.08ZM99.3994 34.72C99.426 34.6133 99.4394 34.52 99.4394 34.44C99.4394 34.36 99.4394 34.2667 99.4394 34.16C99.4394 33.8133 99.3727 33.3467 99.2394 32.76C99.1327 32.1467 98.9727 31.4 98.7594 30.52C98.3594 28.84 98.2127 27.72 98.3194 27.16C97.626 27.88 96.4927 29.8 94.9194 32.92C95.426 33.1867 95.8527 33.4267 96.1994 33.64C96.5727 33.8267 96.866 33.9733 97.0794 34.08C97.506 34.2667 97.906 34.4133 98.2794 34.52C98.6794 34.6267 99.0527 34.6933 99.3994 34.72ZM97.2394 36.76C98.306 36.76 99.0127 36.24 99.3594 35.2C97.226 35.2 95.5994 34.76 94.4794 33.88C94.5327 34.4667 94.8527 35.1067 95.4394 35.8C96.0527 36.44 96.6527 36.76 97.2394 36.76ZM108.236 38.08C106.982 38.08 105.849 37.56 104.836 36.52C103.849 35.4533 103.356 34.2933 103.356 33.04C103.356 32.2133 103.569 31.8 103.996 31.8C104.262 31.8 104.529 32 104.796 32.4C105.596 30.5333 106.729 28.4267 108.196 26.08C109.129 24.64 110.222 23.92 111.476 23.92C111.742 23.92 112.049 24.0133 112.396 24.2C112.769 24.3867 112.956 24.6133 112.956 24.88C112.956 25.0667 112.782 25.16 112.436 25.16C112.409 25.16 112.369 25.16 112.316 25.16C112.262 25.16 112.196 25.1467 112.116 25.12H111.796C111.209 25.12 110.689 25.2933 110.236 25.64C109.782 25.9867 109.556 26.4533 109.556 27.04C109.556 27.2533 109.596 27.48 109.676 27.72L110.636 30.92C110.849 31.56 110.996 32.16 111.076 32.72C111.156 33.2533 111.196 33.7467 111.196 34.2C111.916 34.0933 112.529 33.8267 113.036 33.4C113.356 33.1333 113.782 32.6 114.316 31.8C114.396 31.6933 114.476 31.64 114.556 31.64C114.636 31.64 114.676 31.6933 114.676 31.8C114.676 31.8267 114.649 31.92 114.596 32.08C113.689 33.6 112.569 34.4933 111.236 34.76C111.156 35.6933 110.876 36.4667 110.396 37.08C109.889 37.7467 109.169 38.08 108.236 38.08ZM109.556 34.72C109.582 34.6133 109.596 34.52 109.596 34.44C109.596 34.36 109.596 34.2667 109.596 34.16C109.596 33.8133 109.529 33.3467 109.396 32.76C109.289 32.1467 109.129 31.4 108.916 30.52C108.516 28.84 108.369 27.72 108.476 27.16C107.782 27.88 106.649 29.8 105.076 32.92C105.582 33.1867 106.009 33.4267 106.356 33.64C106.729 33.8267 107.022 33.9733 107.236 34.08C107.662 34.2667 108.062 34.4133 108.436 34.52C108.836 34.6267 109.209 34.6933 109.556 34.72ZM107.396 36.76C108.462 36.76 109.169 36.24 109.516 35.2C107.382 35.2 105.756 34.76 104.636 33.88C104.689 34.4667 105.009 35.1067 105.596 35.8C106.209 36.44 106.809 36.76 107.396 36.76ZM109.872 53.92C108.379 53.92 106.819 53.3067 105.192 52.08C103.565 50.8533 102.752 49.5733 102.752 48.24C102.752 48.1333 102.792 48.08 102.872 48.08C102.979 48.08 103.045 48.16 103.072 48.32C104.192 51.12 106.219 52.52 109.152 52.52C110.645 52.52 112.032 52.16 113.312 51.44C115.792 50.0533 117.725 47.88 119.112 44.92C119.539 43.9867 119.952 42.8 120.352 41.36C120.779 39.9467 121.179 38.28 121.552 36.36C121.712 35.5067 121.912 34.44 122.152 33.16C122.392 31.88 122.739 30.4 123.192 28.72L123.872 26.24C122.192 27.5467 120.179 31.2933 117.832 37.48C117.832 37.5333 117.779 37.56 117.672 37.56C117.485 37.56 117.285 37.4667 117.072 37.28C116.859 37.0933 116.752 36.8933 116.752 36.68C116.752 36.68 116.859 36.4 117.072 35.84C117.312 35.3067 117.432 35.0267 117.432 35C117.939 33.5067 118.192 31.32 118.192 28.44C118.192 26.2533 117.725 25.16 116.792 25.16C116.285 25.16 115.659 25.5067 114.912 26.2C114.219 26.8667 113.845 27.2 113.792 27.2C113.712 27.2 113.672 27.1467 113.672 27.04C113.672 27.0133 113.699 26.92 113.752 26.76C114.125 26.1733 114.725 25.5867 115.552 25C116.432 24.36 117.165 24.04 117.752 24.04C118.872 24.04 119.432 25.12 119.432 27.28C119.432 29.04 119.072 30.9867 118.352 33.12C120.565 29.04 122.445 26.6 123.992 25.8C124.392 24.36 124.845 23.3467 125.352 22.76C126.019 21.9333 127.005 21.52 128.312 21.52C128.792 21.52 129.032 21.6 129.032 21.76C129.032 21.84 128.965 21.9067 128.832 21.96C128.485 22.04 128.179 22.1467 127.912 22.28C126.685 23.16 125.645 25.44 124.792 29.12C124.152 31.8133 123.659 33.8933 123.312 35.36C122.965 36.8 122.765 37.6267 122.712 37.84C121.725 41.4133 120.605 44.3467 119.352 46.64C117.725 49.5467 115.725 51.6667 113.352 53C112.259 53.6133 111.099 53.92 109.872 53.92Z" fill="#1E1E1E"/>
<path d="M104.409 51.4L102.42 49.0375M72.5909 51.4C65.3347 59.0504 53.7843 64 40.7727 64C18.8069 64 1 49.8969 1 32.5C1 15.1032 18.8069 0.999998 40.7727 0.999998C53.7849 0.999998 65.3376 5.94928 72.5941 13.6L75.2453 16.75" stroke="#1E1E1E" stroke-width="2" stroke-linecap="round" stroke-linejoin="round"/>
<path d="M72.5908 51.4L104.406 13.6C111.662 5.94928 123.215 0.999998 136.227 0.999998C158.193 0.999998 176 15.1032 176 32.5C176 49.8969 158.193 64 136.227 64C123.215 64 111.662 59.051 104.406 51.4" stroke="#1E1E1E" stroke-width="2" stroke-linecap="round" stroke-linejoin="round"/>
</svg>
